<svg width="974" height="270" viewBox="0 0 974 270" fill="none" xmlns="http://www.w3.org/2000/svg">
<path d="M174.587 203.26C171.347 203.26 168.377 202.87 165.677 202.09C163.037 201.31 160.727 200.17 158.747 198.67C156.827 197.11 155.267 195.25 154.067 193.09C152.927 190.93 152.177 188.5 151.817 185.8L153.167 185.44C153.707 188.8 154.817 191.59 156.497 193.81C158.237 196.03 160.337 197.71 162.797 198.85C165.317 199.93 167.987 200.47 170.807 200.47C173.627 200.47 176.117 199.87 178.277 198.67C180.497 197.41 182.267 195.55 183.587 193.09C184.907 190.63 185.567 187.57 185.567 183.91C185.567 181.33 185.267 179.11 184.667 177.25C184.127 175.39 183.287 173.86 182.147 172.66C181.007 171.46 179.537 170.59 177.737 170.05C175.997 169.45 173.897 169.15 171.437 169.15H161.897V167.62H172.157C174.317 167.62 176.237 167.08 177.917 166C179.657 164.92 181.037 163.24 182.057 160.96C183.077 158.62 183.587 155.62 183.587 151.96C183.587 148.6 183.137 145.81 182.237 143.59C181.337 141.37 180.047 139.72 178.367 138.64C176.687 137.56 174.677 137.02 172.337 137.02C169.937 137.02 167.687 137.74 165.587 139.18C163.547 140.56 161.867 142.72 160.547 145.66C159.227 148.54 158.477 152.23 158.297 156.73H156.947L154.877 135.4H156.137L159.557 142.42C160.757 140.8 162.167 139.45 163.787 138.37C165.467 137.29 167.357 136.48 169.457 135.94C171.617 135.34 174.017 135.04 176.657 135.04C179.297 135.04 181.817 135.37 184.217 136.03C186.617 136.63 188.747 137.56 190.607 138.82C192.527 140.08 194.027 141.67 195.107 143.59C196.247 145.51 196.817 147.76 196.817 150.34C196.817 152.98 196.157 155.5 194.837 157.9C193.577 160.24 191.687 162.28 189.167 164.02C186.647 165.76 183.497 167.02 179.717 167.8V168.16C183.917 168.46 187.427 169.27 190.247 170.59C193.067 171.91 195.197 173.71 196.637 175.99C198.137 178.21 198.887 180.85 198.887 183.91C198.887 187.69 197.957 191.05 196.097 193.99C194.237 196.87 191.507 199.15 187.907 200.83C184.307 202.45 179.867 203.26 174.587 203.26ZM251.243 215.77L250.433 210.73C250.073 208.33 249.503 206.5 248.723 205.24C247.943 203.98 246.743 203.11 245.123 202.63C243.563 202.21 241.343 202 238.463 202H216.593C213.773 202 211.583 202.24 210.023 202.72C208.463 203.2 207.323 204.04 206.603 205.24C205.883 206.5 205.343 208.33 204.983 210.73L204.263 215.86H202.913V200.56H209.303C211.523 196.6 213.113 192.55 214.073 188.41C215.093 184.21 215.723 179.95 215.963 175.63C216.203 171.31 216.323 166.9 216.323 162.4C216.323 160.6 216.173 159.34 215.873 158.62C215.573 157.9 214.943 157.45 213.983 157.27L210.113 156.64V155.56H252.053V156.64L248.453 157C247.313 157.12 246.563 157.42 246.203 157.9C245.843 158.38 245.663 159.34 245.663 160.78V200.56H252.593V215.41L251.243 215.77ZM211.463 200.56H233.873V157H218.213C218.213 158.92 218.183 160.96 218.123 163.12C218.123 165.22 218.063 167.38 217.943 169.6C217.883 171.76 217.763 173.92 217.583 176.08C217.463 178.24 217.253 180.28 216.953 182.2C216.653 184.84 216.233 187.15 215.693 189.13C215.213 191.05 214.613 192.91 213.893 194.71C213.233 196.45 212.423 198.4 211.463 200.56ZM281.008 203.26C276.628 203.26 272.788 202.36 269.488 200.56C266.248 198.76 263.758 196.12 262.018 192.64C260.278 189.1 259.408 184.81 259.408 179.77C259.408 174.25 260.398 169.63 262.378 165.91C264.418 162.13 267.178 159.25 270.658 157.27C274.198 155.29 278.218 154.3 282.718 154.3C286.378 154.3 289.528 154.99 292.168 156.37C294.868 157.69 296.938 159.61 298.378 162.13C299.878 164.65 300.628 167.62 300.628 171.04C300.628 171.88 300.598 172.69 300.538 173.47C300.538 174.25 300.478 175.06 300.358 175.9H271.828C271.708 180.4 272.188 184.09 273.268 186.97C274.348 189.85 275.938 191.98 278.038 193.36C280.138 194.74 282.628 195.43 285.508 195.43C288.088 195.43 290.518 195.07 292.798 194.35C295.078 193.57 297.508 192.04 300.088 189.76L300.898 190.39C298.678 194.71 295.918 197.95 292.618 200.11C289.318 202.21 285.448 203.26 281.008 203.26ZM271.828 174.46H288.838C288.898 173.74 288.958 172.96 289.018 172.12C289.078 171.28 289.108 170.41 289.108 169.51C289.108 164.41 288.538 160.84 287.398 158.8C286.258 156.76 284.458 155.74 281.998 155.74C280.018 155.74 278.308 156.31 276.868 157.45C275.488 158.53 274.348 160.45 273.448 163.21C272.608 165.91 272.068 169.66 271.828 174.46ZM328.99 203.26C324.73 203.26 320.98 202.36 317.74 200.56C314.56 198.7 312.07 196.03 310.27 192.55C308.53 189.07 307.66 184.81 307.66 179.77C307.66 174.61 308.62 170.14 310.54 166.36C312.52 162.52 315.28 159.55 318.82 157.45C322.36 155.35 326.53 154.3 331.33 154.3C334.69 154.3 337.57 154.87 339.97 156.01C342.37 157.09 344.23 158.53 345.55 160.33C346.87 162.07 347.53 163.93 347.53 165.91C347.53 167.11 347.29 168.22 346.81 169.24C346.39 170.2 345.73 170.98 344.83 171.58C343.93 172.18 342.73 172.48 341.23 172.48C339.37 172.48 337.96 172.03 337 171.13C336.04 170.23 335.56 169.06 335.56 167.62C335.56 166.66 335.89 165.52 336.55 164.2C337.21 162.82 338.29 160.93 339.79 158.53C338.71 157.63 337.48 156.97 336.1 156.55C334.72 156.07 333.22 155.83 331.6 155.83C329.38 155.83 327.37 156.52 325.57 157.9C323.83 159.22 322.45 161.38 321.43 164.38C320.47 167.38 319.99 171.31 319.99 176.17C319.99 182.53 321.19 187.33 323.59 190.57C325.99 193.81 329.35 195.43 333.67 195.43C336.61 195.43 339.16 194.95 341.32 193.99C343.48 193.03 345.43 191.8 347.17 190.3L347.89 190.93C345.79 195.01 343.21 198.1 340.15 200.2C337.09 202.24 333.37 203.26 328.99 203.26ZM354.422 202V200.92L358.292 200.47C359.192 200.35 359.792 200.02 360.092 199.48C360.392 198.94 360.542 197.89 360.542 196.33V161.23C360.542 159.67 360.392 158.62 360.092 158.08C359.792 157.54 359.192 157.21 358.292 157.09L354.422 156.64V155.56H378.452V156.55L374.492 157.18C373.652 157.24 373.082 157.54 372.782 158.08C372.542 158.62 372.422 159.61 372.422 161.05V174.91C373.382 174.73 374.462 174.61 375.662 174.55C376.922 174.43 378.302 174.37 379.802 174.37C383.522 174.37 386.852 174.82 389.792 175.72C392.732 176.62 395.042 178.03 396.722 179.95C398.402 181.81 399.242 184.21 399.242 187.15C399.242 190.51 398.282 193.3 396.362 195.52C394.502 197.68 391.832 199.3 388.352 200.38C384.932 201.46 380.912 202 376.292 202H354.422ZM375.752 200.65C378.992 200.65 381.632 199.57 383.672 197.41C385.772 195.25 386.822 191.95 386.822 187.51C386.822 183.49 385.862 180.58 383.942 178.78C382.082 176.92 379.682 175.99 376.742 175.99C375.902 175.99 375.122 176.02 374.402 176.08C373.742 176.14 373.082 176.23 372.422 176.35V200.38C372.902 200.44 373.412 200.5 373.952 200.56C374.492 200.62 375.092 200.65 375.752 200.65ZM424.205 202V200.92L427.985 200.47C428.945 200.35 429.575 200.02 429.875 199.48C430.175 198.94 430.325 197.89 430.325 196.33V161.23C430.325 159.67 430.175 158.62 429.875 158.08C429.575 157.54 428.945 157.21 427.985 157.09L424.205 156.64V155.56H448.145V156.55L444.275 157.18C443.435 157.24 442.865 157.54 442.565 158.08C442.265 158.62 442.115 159.61 442.115 161.05V190.84L460.385 163.57V160.78C460.385 159.34 460.235 158.38 459.935 157.9C459.635 157.36 458.975 157.03 457.955 156.91L454.535 156.55V155.56H478.655V156.64L475.055 157C473.915 157.12 473.165 157.42 472.805 157.9C472.445 158.38 472.265 159.34 472.265 160.78V196.78C472.265 198.16 472.445 199.12 472.805 199.66C473.165 200.14 473.915 200.44 475.055 200.56L478.655 200.92V202H454.535V201.01L457.955 200.65C458.975 200.53 459.635 200.2 459.935 199.66C460.235 199.12 460.385 198.16 460.385 196.78V166.18L442.115 193.54V196.51C442.115 197.95 442.265 198.94 442.565 199.48C442.865 199.96 443.435 200.26 444.275 200.38L448.145 201.01V202H424.205ZM536.575 203.26C529.855 203.26 524.125 201.91 519.385 199.21C514.645 196.45 511.045 192.49 508.585 187.33C506.185 182.17 504.985 175.93 504.985 168.61C504.985 163.81 505.705 159.37 507.145 155.29C508.645 151.21 510.715 147.67 513.355 144.67C515.995 141.67 519.145 139.33 522.805 137.65C526.465 135.91 530.455 135.04 534.775 135.04C538.735 135.04 542.155 135.79 545.035 137.29C547.915 138.79 550.255 140.47 552.055 142.33L553.135 134.95H554.395L558.085 156.37L556.645 156.73C555.025 152.47 553.195 148.84 551.155 145.84C549.115 142.78 546.775 140.44 544.135 138.82C541.555 137.2 538.615 136.39 535.315 136.39C531.235 136.39 527.935 137.68 525.415 140.26C522.955 142.78 521.155 146.44 520.015 151.24C518.935 155.98 518.395 161.71 518.395 168.43C518.395 173.23 518.845 177.61 519.745 181.57C520.645 185.47 521.965 188.86 523.705 191.74C525.445 194.56 527.575 196.75 530.095 198.31C532.615 199.81 535.495 200.56 538.735 200.56C541.375 200.56 543.925 200.14 546.385 199.3C548.845 198.4 551.125 197.08 553.225 195.34C555.325 193.6 557.155 191.44 558.715 188.86L559.615 189.49C558.535 191.35 557.245 193.12 555.745 194.8C554.305 196.42 552.625 197.89 550.705 199.21C548.845 200.47 546.715 201.46 544.315 202.18C541.975 202.9 539.395 203.26 536.575 203.26ZM586.428 203.26C582.048 203.26 578.208 202.36 574.908 200.56C571.668 198.76 569.178 196.12 567.438 192.64C565.698 189.1 564.828 184.81 564.828 179.77C564.828 174.25 565.818 169.63 567.798 165.91C569.838 162.13 572.598 159.25 576.078 157.27C579.618 155.29 583.638 154.3 588.138 154.3C591.798 154.3 594.948 154.99 597.588 156.37C600.288 157.69 602.358 159.61 603.798 162.13C605.298 164.65 606.048 167.62 606.048 171.04C606.048 171.88 606.018 172.69 605.958 173.47C605.958 174.25 605.898 175.06 605.778 175.9H577.248C577.128 180.4 577.608 184.09 578.688 186.97C579.768 189.85 581.358 191.98 583.458 193.36C585.558 194.74 588.048 195.43 590.928 195.43C593.508 195.43 595.938 195.07 598.218 194.35C600.498 193.57 602.928 192.04 605.508 189.76L606.318 190.39C604.098 194.71 601.338 197.95 598.038 200.11C594.738 202.21 590.868 203.26 586.428 203.26ZM577.248 174.46H594.258C594.318 173.74 594.378 172.96 594.438 172.12C594.498 171.28 594.528 170.41 594.528 169.51C594.528 164.41 593.958 160.84 592.818 158.8C591.678 156.76 589.878 155.74 587.418 155.74C585.438 155.74 583.728 156.31 582.288 157.45C580.908 158.53 579.768 160.45 578.868 163.21C578.028 165.91 577.488 169.66 577.248 174.46ZM613.17 202V200.92L616.95 200.47C617.91 200.35 618.54 200.02 618.84 199.48C619.14 198.94 619.29 197.89 619.29 196.33V161.23C619.29 159.67 619.14 158.62 618.84 158.08C618.54 157.54 617.91 157.21 616.95 157.09L613.17 156.64V155.56H637.11V156.55L633.24 157.18C632.4 157.24 631.83 157.54 631.53 158.08C631.23 158.62 631.08 159.61 631.08 161.05V190.84L649.35 163.57V160.78C649.35 159.34 649.2 158.38 648.9 157.9C648.6 157.36 647.94 157.03 646.92 156.91L643.5 156.55V155.56H667.62V156.64L664.02 157C662.88 157.12 662.13 157.42 661.77 157.9C661.41 158.38 661.23 159.34 661.23 160.78V196.78C661.23 198.16 661.41 199.12 661.77 199.66C662.13 200.14 662.88 200.44 664.02 200.56L667.62 200.92V202H643.5V201.01L646.92 200.65C647.94 200.53 648.6 200.2 648.9 199.66C649.2 199.12 649.35 198.16 649.35 196.78V166.18L631.08 193.54V196.51C631.08 197.95 631.23 198.94 631.53 199.48C631.83 199.96 632.4 200.26 633.24 200.38L637.11 201.01V202H613.17ZM634.59 145.93C631.41 145.27 629.01 144.19 627.39 142.69C625.77 141.13 625.26 139.36 625.86 137.38C626.52 136.42 627.36 135.76 628.38 135.4C629.46 134.98 630.57 135.04 631.71 135.58C632.67 136.18 633.33 136.93 633.69 137.83C634.05 138.73 634.08 139.81 633.78 141.07C634.14 142.33 634.32 143.41 634.32 144.31C634.38 145.21 634.35 146.05 634.23 146.83C635.49 147.13 636.9 147.37 638.46 147.55C640.02 147.67 641.49 147.67 642.87 147.55C643.71 147.19 644.58 146.71 645.48 146.11C646.38 145.45 647.22 144.67 648 143.77C647.52 142.45 647.25 141.22 647.19 140.08C647.13 138.88 647.43 137.71 648.09 136.57C648.69 135.61 649.5 135.13 650.52 135.13C651.54 135.07 652.5 135.34 653.4 135.94C654.24 136.6 654.66 137.32 654.66 138.1C654.66 138.88 654.36 139.69 653.76 140.53C653.22 141.31 652.41 142 651.33 142.6C650.31 143.92 648.87 144.94 647.01 145.66C645.21 146.38 643.23 146.77 641.07 146.83C638.91 146.89 636.75 146.59 634.59 145.93ZM701.507 202V201.01L704.927 200.65C705.947 200.53 706.607 200.2 706.907 199.66C707.267 199.12 707.447 198.16 707.447 196.78V180.94C706.007 182.02 704.087 183.07 701.687 184.09C699.347 185.11 696.467 185.62 693.047 185.62C688.427 185.62 684.797 184.54 682.157 182.38C679.577 180.22 678.287 176.98 678.287 172.66V161.32C678.287 159.76 678.137 158.71 677.837 158.17C677.537 157.57 676.937 157.21 676.037 157.09L672.437 156.64V155.56H696.467V156.55L692.417 157.18C691.517 157.24 690.917 157.54 690.617 158.08C690.317 158.62 690.167 159.61 690.167 161.05V174.55C690.167 177.43 690.827 179.53 692.147 180.85C693.527 182.11 695.507 182.74 698.087 182.74C700.007 182.74 701.747 182.41 703.307 181.75C704.927 181.03 706.307 180.22 707.447 179.32V160.78C707.447 159.34 707.267 158.38 706.907 157.9C706.607 157.36 705.947 157.03 704.927 156.91L701.507 156.55V155.56H725.627V156.64L722.027 157C720.887 157.12 720.137 157.42 719.777 157.9C719.417 158.38 719.237 159.34 719.237 160.78V196.78C719.237 198.16 719.417 199.12 719.777 199.66C720.137 200.14 720.887 200.44 722.027 200.56L725.627 200.92V202H701.507ZM746.105 203.26C742.025 203.26 738.875 202.21 736.655 200.11C734.435 197.95 733.325 194.92 733.325 191.02C733.325 187.96 734.105 185.47 735.665 183.55C737.285 181.63 739.955 180.16 743.675 179.14C747.395 178.06 752.465 177.37 758.885 177.07V165.73C758.885 163.33 758.585 161.41 757.985 159.97C757.385 158.53 756.455 157.48 755.195 156.82C753.995 156.16 752.405 155.83 750.425 155.83C748.565 155.83 746.675 156.13 744.755 156.73C742.835 157.33 741.395 158.14 740.435 159.16C741.755 160.66 742.745 161.92 743.405 162.94C744.125 163.96 744.605 164.83 744.845 165.55C745.145 166.21 745.295 166.81 745.295 167.35C745.295 168.55 744.785 169.6 743.765 170.5C742.805 171.4 741.425 171.85 739.625 171.85C737.645 171.85 736.175 171.37 735.215 170.41C734.255 169.39 733.775 168.04 733.775 166.36C733.775 164.44 734.555 162.55 736.115 160.69C737.675 158.83 739.865 157.3 742.685 156.1C745.505 154.9 748.685 154.3 752.225 154.3C756.245 154.3 759.635 154.87 762.395 156.01C765.155 157.15 767.225 158.98 768.605 161.5C770.045 164.02 770.765 167.32 770.765 171.4V194.62C770.765 196.18 771.095 197.32 771.755 198.04C772.415 198.7 773.285 199.03 774.365 199.03C775.025 199.03 775.685 198.94 776.345 198.76C777.065 198.58 777.785 198.31 778.505 197.95L778.955 198.67C777.455 200.47 775.835 201.67 774.095 202.27C772.355 202.93 770.675 203.26 769.055 203.26C766.055 203.26 763.805 202.51 762.305 201.01C760.805 199.51 759.845 197.35 759.425 194.53C758.525 196.63 757.445 198.34 756.185 199.66C754.985 200.92 753.545 201.82 751.865 202.36C750.245 202.96 748.325 203.26 746.105 203.26ZM751.505 198.85C753.005 198.85 754.295 198.49 755.375 197.77C756.515 197.05 757.385 196.03 757.985 194.71C758.585 193.33 758.885 191.8 758.885 190.12V178.33C755.525 178.45 752.825 178.87 750.785 179.59C748.805 180.25 747.395 181.39 746.555 183.01C745.715 184.63 745.295 186.88 745.295 189.76C745.295 192.82 745.805 195.1 746.825 196.6C747.905 198.1 749.465 198.85 751.505 198.85ZM803.951 203.26C799.691 203.26 795.941 202.36 792.701 200.56C789.521 198.7 787.031 196.03 785.231 192.55C783.491 189.07 782.621 184.81 782.621 179.77C782.621 174.61 783.581 170.14 785.501 166.36C787.481 162.52 790.241 159.55 793.781 157.45C797.321 155.35 801.491 154.3 806.291 154.3C809.651 154.3 812.531 154.87 814.931 156.01C817.331 157.09 819.191 158.53 820.511 160.33C821.831 162.07 822.491 163.93 822.491 165.91C822.491 167.11 822.251 168.22 821.771 169.24C821.351 170.2 820.691 170.98 819.791 171.58C818.891 172.18 817.691 172.48 816.191 172.48C814.331 172.48 812.921 172.03 811.961 171.13C811.001 170.23 810.521 169.06 810.521 167.62C810.521 166.66 810.851 165.52 811.511 164.2C812.171 162.82 813.251 160.93 814.751 158.53C813.671 157.63 812.441 156.97 811.061 156.55C809.681 156.07 808.181 155.83 806.561 155.83C804.341 155.83 802.331 156.52 800.531 157.9C798.791 159.22 797.411 161.38 796.391 164.38C795.431 167.38 794.951 171.31 794.951 176.17C794.951 182.53 796.151 187.33 798.551 190.57C800.951 193.81 804.311 195.43 808.631 195.43C811.571 195.43 814.121 194.95 816.281 193.99C818.441 193.03 820.391 191.8 822.131 190.3L822.851 190.93C820.751 195.01 818.171 198.1 815.111 200.2C812.051 202.24 808.331 203.26 803.951 203.26Z" fill="url(#paint0_linear_75_3)"/>
<path d="M255.601 237.823V234.815H260.177V256H255.601V252.949C253.878 255.35 251.406 256.551 248.186 256.551C245.277 256.551 242.791 255.477 240.729 253.331C238.667 251.184 237.636 248.543 237.636 245.408C237.636 242.272 238.667 239.631 240.729 237.484C242.791 235.338 245.277 234.264 248.186 234.264C251.406 234.264 253.878 235.451 255.601 237.823ZM244.119 250.28C245.39 251.551 246.986 252.187 248.907 252.187C250.827 252.187 252.423 251.551 253.694 250.28C254.965 248.981 255.601 247.357 255.601 245.408C255.601 243.459 254.965 241.848 253.694 240.577C252.423 239.278 250.827 238.628 248.907 238.628C246.986 238.628 245.39 239.278 244.119 240.577C242.848 241.848 242.212 243.459 242.212 245.408C242.212 247.328 242.848 248.952 244.119 250.28ZM265.511 234.815H279.704V239.222H270.086V256H265.511V234.815ZM302.443 247.357H285.58C285.919 248.938 286.682 250.167 287.868 251.043C289.083 251.918 290.58 252.356 292.359 252.356C294.76 252.356 296.582 251.481 297.825 249.729L301.596 251.932C299.534 255.011 296.441 256.551 292.317 256.551C288.899 256.551 286.117 255.506 283.97 253.415C281.851 251.297 280.792 248.628 280.792 245.408C280.792 242.272 281.837 239.631 283.928 237.484C285.99 235.338 288.673 234.264 291.978 234.264C295.057 234.264 297.599 235.352 299.604 237.527C301.61 239.702 302.613 242.343 302.613 245.45C302.613 246.015 302.556 246.65 302.443 247.357ZM285.538 243.628H297.994C297.684 241.961 296.977 240.676 295.876 239.772C294.802 238.868 293.489 238.417 291.935 238.417C290.241 238.417 288.828 238.883 287.698 239.815C286.569 240.747 285.848 242.018 285.538 243.628ZM320.918 243.247V234.815H325.494V256H320.918V247.568H311.215V256H306.639V234.815H311.215V243.247H320.918ZM328.558 234.815H346.988V239.222H340.082V256H335.506V239.222H328.558V234.815ZM359.256 256.551C356.065 256.551 353.395 255.477 351.249 253.331C349.13 251.156 348.071 248.515 348.071 245.408C348.071 242.244 349.13 239.603 351.249 237.484C353.395 235.338 356.065 234.264 359.256 234.264C361.318 234.264 363.197 234.759 364.892 235.747C366.586 236.736 367.858 238.063 368.705 239.73L364.765 242.018C364.284 241.001 363.55 240.21 362.561 239.645C361.601 239.052 360.485 238.755 359.214 238.755C357.35 238.755 355.782 239.391 354.511 240.662C353.268 241.961 352.647 243.543 352.647 245.408C352.647 247.272 353.268 248.854 354.511 250.153C355.782 251.424 357.35 252.06 359.214 252.06C360.457 252.06 361.573 251.777 362.561 251.212C363.578 250.619 364.341 249.814 364.849 248.797L368.79 251.043C367.886 252.738 366.572 254.079 364.849 255.068C363.154 256.056 361.29 256.551 359.256 256.551ZM369.645 234.815H388.076V239.222H381.169V256H376.593V239.222H369.645V234.815ZM405.832 245.111C407.922 246.1 408.967 247.724 408.967 249.983C408.967 251.791 408.346 253.246 407.103 254.348C405.888 255.449 404.194 256 402.019 256H391.172V234.815H401.171C403.318 234.815 404.999 235.352 406.213 236.425C407.428 237.499 408.035 238.911 408.035 240.662C408.035 242.668 407.301 244.151 405.832 245.111ZM400.832 238.713H395.536V243.416H400.832C402.696 243.416 403.629 242.625 403.629 241.043C403.629 239.49 402.696 238.713 400.832 238.713ZM395.536 252.017H401.595C403.516 252.017 404.476 251.184 404.476 249.517C404.476 248.783 404.222 248.218 403.713 247.823C403.205 247.399 402.499 247.187 401.595 247.187H395.536V252.017ZM430.61 253.331C428.463 255.477 425.822 256.551 422.687 256.551C419.552 256.551 416.911 255.477 414.764 253.331C412.589 251.156 411.501 248.515 411.501 245.408C411.501 242.3 412.589 239.659 414.764 237.484C416.911 235.338 419.552 234.264 422.687 234.264C425.822 234.264 428.463 235.338 430.61 237.484C432.785 239.659 433.873 242.3 433.873 245.408C433.873 248.515 432.785 251.156 430.61 253.331ZM416.077 245.408C416.077 247.328 416.713 248.924 417.984 250.195C419.255 251.466 420.823 252.102 422.687 252.102C424.551 252.102 426.119 251.466 427.39 250.195C428.661 248.924 429.297 247.328 429.297 245.408C429.297 243.487 428.661 241.891 427.39 240.62C426.119 239.349 424.551 238.713 422.687 238.713C420.823 238.713 419.255 239.349 417.984 240.62C416.713 241.891 416.077 243.487 416.077 245.408ZM462.881 243.247V234.815H467.457V256H462.881V247.568H453.179V256H448.603V234.815H453.179V243.247H462.881ZM493.232 247.357H476.368C476.707 248.938 477.47 250.167 478.656 251.043C479.871 251.918 481.368 252.356 483.148 252.356C485.548 252.356 487.37 251.481 488.613 249.729L492.384 251.932C490.322 255.011 487.229 256.551 483.105 256.551C479.687 256.551 476.905 255.506 474.758 253.415C472.64 251.297 471.581 248.628 471.581 245.408C471.581 242.272 472.626 239.631 474.716 237.484C476.778 235.338 479.461 234.264 482.766 234.264C485.845 234.264 488.387 235.352 490.393 237.527C492.398 239.702 493.401 242.343 493.401 245.45C493.401 246.015 493.345 246.65 493.232 247.357ZM476.326 243.628H488.783C488.472 241.961 487.766 240.676 486.664 239.772C485.591 238.868 484.277 238.417 482.724 238.417C481.029 238.417 479.617 238.883 478.487 239.815C477.357 240.747 476.637 242.018 476.326 243.628ZM515.243 234.815V251.678H518.081V261.678H513.59V256H499.057V261.678H494.566V251.678H497.151C498.45 249.87 499.1 247.314 499.1 244.009V234.815H515.243ZM502.193 251.678H510.751V239.01H503.591V244.009C503.591 247.06 503.125 249.616 502.193 251.678ZM536.458 245.111C538.549 246.1 539.594 247.724 539.594 249.983C539.594 251.791 538.972 253.246 537.729 254.348C536.515 255.449 534.82 256 532.645 256H521.798V234.815H531.798C533.944 234.815 535.625 235.352 536.84 236.425C538.054 237.499 538.662 238.911 538.662 240.662C538.662 242.668 537.927 244.151 536.458 245.111ZM531.459 238.713H526.162V243.416H531.459C533.323 243.416 534.255 242.625 534.255 241.043C534.255 239.49 533.323 238.713 531.459 238.713ZM526.162 252.017H532.221C534.142 252.017 535.103 251.184 535.103 249.517C535.103 248.783 534.848 248.218 534.34 247.823C533.831 247.399 533.125 247.187 532.221 247.187H526.162V252.017ZM547.806 248.246L558.652 234.815H562.169V256H557.678V242.526L546.831 256H543.314V234.815H547.806V248.246ZM586.502 245.196L594.765 256H589.553L582.35 246.213V256H577.859V246.297L570.656 256H565.445L573.707 245.196L565.868 234.815H571.08L577.859 244.094V234.815H582.35V244.136L589.129 234.815H594.341L586.502 245.196ZM602.547 248.246L613.394 234.815H616.91V256H612.419V242.526L601.573 256H598.056V234.815H602.547V248.246ZM639.168 234.815H643.828V256H639.38V242.06L633.278 251.763H632.728L626.669 242.103V256H622.22V234.815H626.881L633.024 244.603L639.168 234.815ZM667.037 253.331C664.89 255.477 662.249 256.551 659.114 256.551C655.979 256.551 653.338 255.477 651.191 253.331C649.016 251.156 647.928 248.515 647.928 245.408C647.928 242.3 649.016 239.659 651.191 237.484C653.338 235.338 655.979 234.264 659.114 234.264C662.249 234.264 664.89 235.338 667.037 237.484C669.212 239.659 670.3 242.3 670.3 245.408C670.3 248.515 669.212 251.156 667.037 253.331ZM652.504 245.408C652.504 247.328 653.14 248.924 654.411 250.195C655.682 251.466 657.25 252.102 659.114 252.102C660.978 252.102 662.546 251.466 663.817 250.195C665.088 248.924 665.724 247.328 665.724 245.408C665.724 243.487 665.088 241.891 663.817 240.62C662.546 239.349 660.978 238.713 659.114 238.713C657.25 238.713 655.682 239.349 654.411 240.62C653.14 241.891 652.504 243.487 652.504 245.408ZM684.437 256.551C681.245 256.551 678.575 255.477 676.429 253.331C674.31 251.156 673.251 248.515 673.251 245.408C673.251 242.244 674.31 239.603 676.429 237.484C678.575 235.338 681.245 234.264 684.437 234.264C686.499 234.264 688.377 234.759 690.072 235.747C691.767 236.736 693.038 238.063 693.885 239.73L689.945 242.018C689.465 241.001 688.73 240.21 687.741 239.645C686.781 239.052 685.665 238.755 684.394 238.755C682.53 238.755 680.962 239.391 679.691 240.662C678.448 241.961 677.827 243.543 677.827 245.408C677.827 247.272 678.448 248.854 679.691 250.153C680.962 251.424 682.53 252.06 684.394 252.06C685.637 252.06 686.753 251.777 687.741 251.212C688.758 250.619 689.521 249.814 690.029 248.797L693.97 251.043C693.066 252.738 691.753 254.079 690.029 255.068C688.335 256.056 686.47 256.551 684.437 256.551ZM694.825 234.815H713.256V239.222H706.349V256H701.774V239.222H694.825V234.815ZM720.843 248.246L731.69 234.815H735.207V256H730.715V242.526L719.869 256H716.352V234.815H720.843V248.246Z" fill="white"/>
<path fill-rule="evenodd" clip-rule="evenodd" d="M629.402 3.0377L626.385 6.07499V12.687V19.2991L623.461 22.3138L620.538 25.3286V37.2067V49.0844L616.153 53.4543L611.768 57.8241V69.4204V81.0166H609.563C607.421 81.0166 607.286 80.944 604.878 78.511L602.398 76.0053H598.637H594.875L591.837 79.0225L588.8 82.0398V86.3307V90.6217H586.294H583.788V70.8503V51.0793L579.299 46.6338L574.81 42.1888L566.866 42.1838L558.923 42.1788L555.278 45.8412L551.632 49.5037V76.3269V103.15H550.588H549.544V83.6171V64.0837L546.299 60.8573L543.053 57.6304H537.946H532.84V37.266V16.9012L527.509 11.5829C524.578 8.6575 521.992 6.26417 521.763 6.26417C521.534 6.26417 518.107 9.50776 514.147 13.4721L506.948 20.6805V31.2206V41.7611H498.48H490.012L487.204 44.5905L484.397 47.4198V73.6145V99.8091L482.413 99.8095H480.429L480.547 88.0709L480.664 76.3323L476.684 72.281L472.704 68.2298V52.5969V36.9644L461.536 25.7904L450.367 14.6164H439.289H428.211L424.357 18.4872L420.502 22.3581V32.4772V42.5964H413.305H406.107L401.194 47.4966L396.281 52.3973V77.7735V103.15H393.984H391.687V89.2607V75.3709L383.435 67.1273L375.184 58.8832L366.731 67.3436L358.278 75.804V83.4216V91.0393H354.52H350.761V53.0367V15.034H329.881H309V62.4329V109.832H552.259H665V76.4229L660.309 71.7181L655.618 67.0137V62.0036V56.9939L649.145 50.531L642.672 44.068V22.034V0H637.545H632.419L629.402 3.0377ZM638.704 12.5283V9.60506V6.68178H635.885H633.066V9.60506V12.5283H635.885H638.704ZM638.704 25.4743V22.7598V20.0454H635.885H633.066V22.7598V25.4743H635.885H638.704ZM325.287 28.8152V25.8919V22.9686H322.155H319.023V25.8919V28.8152H322.155H325.287ZM340.738 28.8152V25.8919V22.9686H337.815H334.892V25.8919V28.8152H337.815H340.738ZM517.388 28.8152V25.8919V22.9686H514.465H511.542V25.8919V28.8152H514.465H517.388ZM527.828 28.8152V25.8919V22.9686H524.905H521.982V25.8919V28.8152H524.905H527.828ZM434.701 32.1561V29.2328V26.3095H431.778H428.854V29.2328V32.1561H431.778H434.701ZM447.647 32.1561V29.2328V26.3095H444.724H441.8V29.2328V32.1561H444.724H447.647ZM638.704 38.8379V35.9146V32.9913H635.885H633.066V35.9146V38.8379H635.885H638.704ZM325.287 40.0907V37.1674V34.2441H322.155H319.023V37.1674V40.0907H322.155H325.287ZM340.738 40.0907V37.1674V34.2441H337.815H334.892V37.1674V40.0907H337.815H340.738ZM517.388 40.0907V37.1674V34.2441H514.465H511.542V37.1674V40.0907H514.465H517.388ZM527.828 40.0907V37.1674V34.2441H524.905H521.982V37.1674V40.0907H524.905H527.828ZM434.701 43.4316V40.5083V37.585H431.778H428.854V40.5083V43.4316H431.778H434.701ZM447.647 43.4316V40.5083V37.585H444.724H441.8V40.5083V43.4316H444.724H447.647ZM325.287 51.3662V48.4429V45.5196H322.155H319.023V48.4429V51.3662H322.155H325.287ZM340.738 51.3662V48.4429V45.5196H337.815H334.892V48.4429V51.3662H337.815H340.738ZM517.388 51.3662V48.4429V45.5196H514.465H511.542V48.4429V51.3662H514.465H517.388ZM527.828 51.3662V48.4429V45.5196H524.905H521.982V48.4429V51.3662H524.905H527.828ZM638.704 52.2014V49.2781V46.3549H635.885H633.066V49.2781V52.2014H635.885H638.704ZM501.101 53.0367V50.1134V47.1901H498.178H495.255V50.1134V53.0367H498.178H501.101ZM434.701 54.7071V51.7838V48.8605H431.778H428.854V51.7838V54.7071H431.778H434.701ZM447.647 54.7071V51.7838V48.8605H444.724H441.8V51.7838V54.7071H444.724H447.647ZM563.743 58.048V55.1247V52.2014H561.029H558.314V55.1247V58.048H561.029H563.743ZM576.271 58.048V55.1247V52.2014H573.348H570.425V55.1247V58.048H573.348H576.271ZM406.721 60.9713V58.048V55.1247H403.693H400.666V58.048V60.9713H403.693H406.721ZM418.832 60.9713V58.048V55.1247H415.7H412.568V58.048V60.9713H415.7H418.832ZM325.287 62.6417V59.7184V56.7952H322.155H319.023V59.7184V62.6417H322.155H325.287ZM340.738 62.6417V59.7184V56.7952H337.815H334.892V59.7184V62.6417H337.815H340.738ZM517.388 62.6417V59.7184V56.7952H514.465H511.542V59.7184V62.6417H514.465H517.388ZM527.828 62.6417V59.7184V56.7952H524.905H521.982V59.7184V62.6417H524.905H527.828ZM623.879 62.6417V59.7184V56.7952H620.956H618.032V59.7184V62.6417H620.956H623.879ZM501.101 64.3122V61.3889V58.4656H498.178H495.255V61.3889V64.3122H498.178H501.101ZM638.704 65.1478L638.644 62.3289L638.584 59.5096L635.825 59.386L633.066 59.2628V62.2049V65.1474L635.885 65.1478H638.704ZM434.701 65.9826V63.0593V60.136H431.778H428.854V63.0593V65.9826H431.778H434.701ZM447.647 65.9826V63.0593V60.136H444.724H441.8V63.0593V65.9826H444.724H447.647ZM563.743 68.9059V65.9826V63.0593H561.029H558.314V65.9826V68.9059H561.029H563.743ZM576.271 68.9059V65.9826V63.0593H573.348H570.425V65.9826V68.9059H573.348H576.271ZM406.721 70.5763V67.8619V65.1474H403.798H400.875V67.8619V70.5763H403.798H406.721ZM418.832 70.5763V67.8619V65.1474H415.7H412.568V67.8619V70.5763H415.7H418.832ZM542.027 72.2468V69.3235V66.4002H539.104H536.181V69.3235V72.2468H539.104H542.027ZM325.287 73.9172V70.9939V68.0707H322.155H319.023V70.9939V73.9172H322.155H325.287ZM517.388 73.9172V70.9939V68.0707H514.465H511.542V70.9939V73.9172H514.465H517.388ZM527.828 73.9172V70.9939V68.0707H524.905H521.982V70.9939V73.9172H524.905H527.828ZM623.879 75.1701V72.2468V69.3235H620.956H618.032V72.2468V75.1701H620.956H623.879ZM501.101 75.5877V72.6644V69.7411H498.178H495.255V72.6644V75.5877H498.178H501.101ZM434.701 77.2581V74.3348V71.4116H431.778H428.854V74.3348V77.2581H431.778H434.701ZM447.647 77.2581V74.3348V71.4116H444.724H441.8V74.3348V77.2581H444.724H447.647ZM638.704 78.511V75.5877V72.6644H635.885H633.066V75.5877V78.511H635.885H638.704ZM563.675 80.1814L563.813 77.2573L563.952 74.3327L561.133 74.334L558.314 74.3348V77.2581V80.1814H560.994H563.675ZM576.271 80.1814V77.2581V74.3348H573.348H570.425V77.2581V80.1814H573.348H576.271ZM657.706 80.1814V77.2581V74.3348H654.782H651.859V77.2581V80.1814H654.782H657.706ZM406.721 80.599V77.6757V74.7525H403.693H400.666V77.6757V80.599H403.693H406.721ZM418.832 80.599V77.6757V74.7525H415.7H412.568V77.6757V80.599H415.7H418.832ZM371.642 81.8518V79.1374V76.4229H368.51H365.378V79.1374V81.8518H368.51H371.642ZM382.917 81.8518V79.1374V76.4229H379.785H376.653V79.1374V81.8518H379.785H382.917ZM542.027 83.5223V80.599V77.6757H539.104H536.181V80.599V83.5223H539.104H542.027ZM476.045 83.9399V81.0166V78.0933H473.121H470.198V81.0166V83.9399H473.121H476.045ZM325.287 85.1927V82.2695V79.3462H322.155H319.023V82.2695V85.1927H322.155H325.287ZM527.828 85.1927V82.2695V79.3462H524.905H521.982V82.2695V85.1927H524.905H527.828ZM501.101 86.8632V83.9399V81.0166H498.178H495.255V83.9399V86.8632H498.178H501.101ZM623.879 87.6984V84.7751V81.8518H620.956H618.032V84.7751V87.6984H620.956H623.879ZM434.701 88.5336V85.6103V82.6871H431.778H428.854V85.6103V88.5336H431.778H434.701ZM601.328 88.5336V85.6103V82.6871H598.405H595.481V85.6103V88.5336H598.405H601.328ZM406.721 90.2041V87.2808V84.3575L403.693 84.3567L400.666 84.3554L400.804 87.28L400.943 90.2041H403.832H406.721ZM563.743 91.4569V88.5336V85.6103H561.029H558.314V88.5336V91.4569H561.029H563.743ZM576.271 91.4569V88.5336V85.6103H573.348H570.425V88.5336V91.4569H573.348H576.271ZM657.706 91.4569V88.5336V85.6103H654.782H651.859V88.5336V91.4569H654.782H657.706ZM371.642 91.8745V88.9512V86.028H368.51H365.378V88.9512V91.8745H368.51H371.642ZM382.917 91.9113V88.9696V86.028H379.766H376.615L376.738 88.8468L376.862 91.6657L379.89 91.7885L382.917 91.9113ZM638.584 91.6657L638.644 88.8464L638.704 86.0275H635.885L633.066 86.028V88.9705V91.9125L635.825 91.7893L638.584 91.6657ZM476.045 93.545V90.6217V87.6984H473.121H470.198V90.6217V93.545H473.121H476.045ZM542.027 94.7978V91.8745V88.9512H539.104H536.181V91.8745V94.7978H539.104H542.027ZM501.103 97.9299L501.102 94.9022L501.101 91.8745H498.178H495.255V94.7636V97.6526L498.179 97.7913L501.103 97.9299ZM601.328 97.7211V94.7978V91.8745H598.405H595.481V94.7978V97.7211H598.405H601.328ZM623.879 100.227V97.5123V94.7978H620.956H618.032V97.5123V100.227H620.956H623.879ZM371.642 101.48V98.5563V95.633H368.51H365.378V98.5563V101.48H368.51H371.642ZM563.743 102.315V99.3915V96.4682H561.029H558.314V99.3915V102.315H561.029H563.743Z" fill="url(#paint1_linear_75_3)"/>
<defs>
<linearGradient id="paint0_linear_75_3" x1="0" y1="96" x2="604.564" y2="256.937" gradientUnits="userSpaceOnUse">
<stop stop-color="#FFE3AC"/>
<stop offset="0.333325" stop-color="#F4CA78"/>
<stop offset="0.6823" stop-color="#FFE3AC"/>
<stop offset="1" stop-color="#EAC173"/>
</linearGradient>
<linearGradient id="paint1_linear_75_3" x1="309" y1="0" x2="543.786" y2="20.7993" gradientUnits="userSpaceOnUse">
<stop stop-color="#FFE3AC"/>
<stop offset="0.333325" stop-color="#F4CA78"/>
<stop offset="0.6823" stop-color="#FFE3AC"/>
<stop offset="1" stop-color="#EAC173"/>
</linearGradient>
</defs>
</svg>
